<?xml version="1.0" standalone="no"?>
<!DOCTYPE svg PUBLIC "-//W3C//DTD SVG 20010904//EN"
 "http://www.w3.org/TR/2001/REC-SVG-20010904/DTD/svg10.dtd">
<svg version="1.0" xmlns="http://www.w3.org/2000/svg"
 width="192.000000pt" height="192.000000pt" viewBox="0 0 192.000000 192.000000"
 preserveAspectRatio="xMidYMid meet">
<metadata>
Created by potrace 1.14, written by Peter Selinger 2001-2017
</metadata>
<g transform="translate(0.000000,192.000000) scale(0.100000,-0.100000)"
fill="#000000" stroke="none">
<path d="M949 1913 c-1 -5 -2 -53 -3 -108 l-1 -100 -360 -5 -360 -5 -5 -360
-5 -360 -108 0 c-102 0 -108 -1 -105 -20 3 -19 10 -20 108 -20 l105 0 5 -340
5 -340 360 -3 361 -2 -1 -123 c0 -115 1 -122 20 -125 20 -3 21 2 20 123 l-1
125 343 0 343 0 0 343 0 343 125 -1 c120 -1 125 0 125 20 0 20 -5 21 -125 20
l-125 -1 -2 360 -3 361 -340 5 -340 5 0 108 c0 96 -2 107 -17 107 -10 0 -19
-3 -19 -7z m681 -596 l0 -342 -100 0 -100 -1 0 237 c0 181 -3 238 -12 241 -7
2 -106 4 -220 3 -115 0 -209 2 -209 5 -1 3 -2 49 -3 103 l-1 97 322 0 323 0 0
-343z m-685 3 c0 -105 0 -105 -47 -116 -5 -1 -10 -2 -13 -3 -3 0 -7 0 -9 2 -2
1 -13 -7 -25 -17 -12 -11 -21 -16 -21 -12 0 4 -6 1 -14 -6 -7 -7 -23 -20 -35
-28 -11 -8 -21 -20 -21 -26 0 -6 -7 -17 -15 -24 -8 -7 -12 -16 -9 -21 3 -5 0
-9 -6 -9 -6 0 -8 -4 -5 -10 3 -5 2 -10 -4 -10 -5 0 -8 -9 -6 -20 2 -11 -1 -20
-6 -20 -6 0 -8 -4 -5 -9 9 -14 -12 -17 -109 -17 l-90 1 -3 223 -2 222 222 0
223 0 0 -100z m130 -172 c17 -9 40 -27 51 -40 24 -25 58 -88 49 -88 -4 0 -3
-6 2 -12 18 -30 9 -34 -71 -33 l-81 1 3 27 c3 29 0 32 -26 18 -16 -8 -17 -1
-18 73 l0 83 30 -7 c17 -4 45 -14 61 -22z m-610 -433 l0 -220 240 -3 241 -2
-1 -100 0 -100 -342 0 -343 0 0 323 0 323 103 -1 102 -1 0 -219z m475 216 c3
0 6 -28 6 -60 0 -33 -3 -58 -7 -55 -14 8 -16 -22 -3 -47 7 -15 11 -29 8 -32
-14 -14 -108 29 -140 65 -24 26 -58 88 -48 88 4 0 1 7 -6 15 -6 8 -9 18 -6 23
4 6 167 9 196 3z m450 -198 l0 -203 -203 0 -203 0 1 85 c0 51 4 84 10 83 6 -1
18 2 28 5 9 4 25 10 35 14 9 3 20 5 25 5 4 -1 7 3 7 8 0 6 6 10 14 10 17 0 76
59 76 77 0 7 5 13 12 13 6 0 8 3 5 7 -4 3 -2 12 3 19 10 11 20 44 22 70 1 6
33 10 85 10 l83 -1 0 -202z"/>
</g>
</svg>
